<svg xmlns="http://www.w3.org/2000/svg" width="64" height="64" fill="none"><path fill="#FF540F" d="M0 0h64v64H0V0Z"/><path fill="#fff" d="M20.268 50.797c-.517 0-.934-.06-1.252-.178-.318-.08-.477-.238-.477-.476 0-.476.656-.833 1.967-1.07 1.51-.278 2.543-.733 3.1-1.368.595-.634.893-1.684.893-3.15V19.463c0-1.784-.238-3.151-.715-4.102-.437-.952-1.41-1.566-2.92-1.844-.676-.119-1.172-.277-1.49-.475-.318-.198-.477-.436-.477-.714 0-.238.159-.396.477-.475.318-.12.735-.179 1.251-.179 1.47 0 2.702.02 3.695.06 1.033.04 2.046.079 3.04.119h11.025c1.272 0 2.384-.1 3.338-.298.993-.198 1.847-.297 2.563-.297.198 0 .417.04.655.119.238.08.377.218.417.416.08.436.14 1.09.18 1.962.039.833.059 1.645.059 2.438.04.793.06 1.328.06 1.605 0 .832-.18 1.249-.537 1.249a.873.873 0 0 1-.536-.179 1.586 1.586 0 0 1-.358-.535c-.159-.674-.358-1.248-.596-1.724-.238-.515-.497-.912-.775-1.189-.556-.634-1.172-1.05-1.847-1.249a6.413 6.413 0 0 0-2.146-.356h-7.569c-.914 0-1.47.297-1.668.891-.2.595-.318 1.289-.358 2.081a54.45 54.45 0 0 0-.06 2.795v6.183c0 1.03.02 1.903.06 2.616 0 .317.02.615.06.892.079.277.258.416.536.416 1.271 0 2.563-.02 3.874-.06a53.942 53.942 0 0 1 3.04-.118c.873 0 1.628-.238 2.264-.714.636-.475 1.093-1.05 1.37-1.724.08-.158.24-.357.477-.594.239-.278.438-.417.596-.417.16 0 .338.1.537.298.198.158.278.376.238.654-.04.674-.08 1.268-.119 1.783-.04.516-.06 1.011-.06 1.487 0 .594.02 1.209.06 1.843.04.594.08 1.328.12 2.2 0 .277-.04.515-.12.713-.04.198-.179.298-.417.298-.398 0-.715-.179-.954-.536a7.926 7.926 0 0 1-.417-.832c-.278-.912-.695-1.526-1.252-1.843-.556-.357-1.072-.535-1.549-.535h-1.55c-.476-.04-.953-.06-1.43-.06h-1.967c-.635 0-1.271.04-1.907.12-.397.039-.735.178-1.013.415-.278.199-.417.555-.417 1.07v5.59c.04 1.862.1 3.785.179 5.767.08 1.268.377 2.279.894 3.032.556.753 1.569 1.268 3.04 1.546.674.119 1.171.257 1.49.416.317.159.476.376.476.654 0 .238-.16.396-.477.475-.318.12-.735.179-1.252.179-1.072 0-1.907-.04-2.503-.119a26.86 26.86 0 0 0-1.55-.178c-.436-.08-1.032-.12-1.787-.12-.954 0-1.808.04-2.563.12-.715.04-1.45.099-2.205.178-.755.08-1.669.119-2.741.119Z"/></svg>